<?xml version="1.0" encoding="iso-8859-1"?>
<!-- Generator: Adobe Illustrator 19.0.0, SVG Export Plug-In . SVG Version: 6.00 Build 0)  -->
<svg version="1.1" id="Capa_1" xmlns="http://www.w3.org/2000/svg" xmlns:xlink="http://www.w3.org/1999/xlink" x="0px" y="0px"
	 viewBox="0 0 512 512" style="enable-background:new 0 0 512 512;" xml:space="preserve">
<path style="fill:#FF9811;" d="M197.737,165.879c0,0-12.781-73.679,63.905-107.511c35.876-15.828,47.892-35.439,50.522-51.831
	c1.201-7.486,11.376-8.97,14.812-2.211c17.349,34.133,32.367,94.269-14.211,168.961c-0.75,1.614-2.068,113.731-2.068,113.731
	H196.939L197.737,165.879z"/>
<path style="fill:#FF3501;" d="M225.319,276.774l0.225-115.579c0,0-1.77-14.998,3.078-30.597
	c6.416-20.645,21.355-36.268,44.402-46.435c14.472-6.384,25.932-13.497,34.986-20.903c2.858-2.337,7.148-0.471,7.371,3.214
	c1.396,23.099-3.429,50.391-20.219,81.098c-4.485,8.203-7.283,17.217-8.128,26.529c-1.522,16.77-3.548,48.537-4.197,102.673h-57.517
	V276.774z"/>
<path style="fill:#3E3D42;" d="M264.949,504.131l23.969-186.134h-65.836l23.97,186.134
	C248.404,514.623,263.598,514.623,264.949,504.131z"/>
<g>
	<path style="fill:#2D2D30;" d="M249.771,317.996h-26.689l23.97,186.134c1.352,10.492,16.545,10.492,17.896,0l4.396-34.139
		L249.771,317.996z"/>
	<path style="fill:#2D2D30;" d="M283.171,362.62l5.746-44.623h-65.836l5.746,44.623c8.552,2.835,17.681,4.392,27.171,4.392
		C265.491,367.012,274.62,365.455,283.171,362.62z"/>
</g>
<path style="fill:#57565C;" d="M272.635,404.837h-33.269c-7.599,0-13.815-6.217-13.815-13.815l0,0
	c0-7.599,6.217-13.815,13.815-13.815h33.269c7.599,0,13.815,6.217,13.815,13.815l0,0
	C286.449,398.619,280.232,404.837,272.635,404.837z"/>
<path style="fill:#3E3D42;" d="M249.246,391.022c0-7.599,6.217-13.815,13.815-13.815h-23.694c-7.599,0-13.815,6.217-13.815,13.815
	s6.217,13.815,13.815,13.815h23.694C255.463,404.837,249.246,398.619,249.246,391.022z"/>
<rect x="190.028" y="201.792" style="fill:#1D1D1F;" width="131.946" height="21.504"/>
<path style="fill:#3E3D42;" d="M255.995,285.326h0.009c6.203,0,11.277-5.075,11.277-11.277V131.954
	c0-6.203-5.075-11.277-11.277-11.277h-0.009c-6.203,0-11.277,5.075-11.277,11.277v142.095
	C244.718,280.252,249.793,285.326,255.995,285.326z"/>
<path style="fill:#2D2D30;" d="M256,274.049V131.954c0-4.151,2.279-7.787,5.641-9.746c-1.662-0.967-3.584-1.532-5.636-1.532h-0.009
	c-6.203,0-11.277,5.075-11.277,11.277v142.095c0,6.203,5.075,11.277,11.277,11.277h0.009c2.052,0,3.974-0.565,5.636-1.532
	C258.279,281.837,256,278.199,256,274.049z"/>
<path style="fill:#3E3D42;" d="M201.303,287.018c-6.228,0-11.277-5.049-11.277-11.277l0.004-73.944
	c0.284-11.579-2.67-45.14-19.414-47.183c-6.183-0.754-10.583-6.377-9.829-12.559c0.753-6.182,6.384-10.588,12.559-9.829
	c12.318,1.502,28.53,9.533,35.809,39.265c3.615,14.766,3.462,28.903,3.424,30.743v73.508
	C212.58,281.969,207.531,287.018,201.303,287.018z"/>
<path style="fill:#2D2D30;" d="M200.316,269.155l0.004-73.944c0.284-11.579-2.67-45.14-19.414-47.183
	c-6.183-0.754-10.583-6.377-9.829-12.559c0.144-1.184,0.47-2.299,0.941-3.329c-5.635-0.028-10.533,4.171-11.232,9.906
	c-0.754,6.183,3.647,11.806,9.829,12.559c16.743,2.042,19.697,35.603,19.414,47.182l-0.004,73.944
	c0,6.228,5.049,11.277,11.277,11.277c4.55,0,8.46-2.7,10.243-6.58C205.339,280.404,200.316,275.367,200.316,269.155z"/>
<path style="fill:#3E3D42;" d="M310.698,287.018c6.228,0,11.277-5.049,11.277-11.277l-0.004-73.944
	c-0.284-11.579,2.67-45.14,19.414-47.183c6.183-0.754,10.583-6.377,9.829-12.559c-0.753-6.182-6.384-10.588-12.559-9.829
	c-12.318,1.502-28.53,9.533-35.809,39.265c-3.615,14.766-3.462,28.903-3.424,30.743v73.508
	C299.421,281.969,304.469,287.018,310.698,287.018z"/>
<path style="fill:#2D2D30;" d="M309.207,281.922v-73.508c-0.037-1.84-0.391-16.028,3.424-30.743
	c9.342-36.021,36.904-39.346,37.443-39.333c-2.084-4.121-6.58-6.708-11.421-6.113c-12.318,1.502-28.53,9.533-35.809,39.265
	c-3.615,14.766-3.462,28.903-3.424,30.743v73.508c0,6.137,4.905,11.119,11.006,11.264
	C309.653,285.476,309.207,283.752,309.207,281.922z"/>
<path style="fill:#787680;" d="M190.028,276.003v4.433c0,36.285,29.688,65.973,65.973,65.973l0,0
	c36.285,0,65.973-29.688,65.973-65.973v-4.433c0-6.851-5.554-12.405-12.405-12.405H202.433
	C195.581,263.598,190.028,269.151,190.028,276.003z"/>
<path style="fill:#57565C;" d="M237.416,280.436v-4.433c0-6.851,5.554-12.405,12.405-12.405h-47.388
	c-6.851,0-12.405,5.554-12.405,12.405v4.433c0,36.285,29.688,65.973,65.973,65.973l0,0c8.343,0,16.329-1.585,23.694-4.444
	C255.029,332.391,237.416,308.378,237.416,280.436z"/>
<g>
</g>
<g>
</g>
<g>
</g>
<g>
</g>
<g>
</g>
<g>
</g>
<g>
</g>
<g>
</g>
<g>
</g>
<g>
</g>
<g>
</g>
<g>
</g>
<g>
</g>
<g>
</g>
<g>
</g>
</svg>
